<?xml version="1.0" encoding="UTF-8" standalone="no"?>
<!-- Created with Inkscape (http://www.inkscape.org/) -->

<svg
   xmlns:dc="http://purl.org/dc/elements/1.1/"
   xmlns:cc="http://creativecommons.org/ns#"
   xmlns:rdf="http://www.w3.org/1999/02/22-rdf-syntax-ns#"
   xmlns:svg="http://www.w3.org/2000/svg"
   xmlns="http://www.w3.org/2000/svg"
   xmlns:sodipodi="http://sodipodi.sourceforge.net/DTD/sodipodi-0.dtd"
   xmlns:inkscape="http://www.inkscape.org/namespaces/inkscape"
   viewBox="0 0 40 40"
   id="svg2"
   version="1.1"
   inkscape:version="0.48.4 r9939"
   sodipodi:docname="drawing.svg">
  <defs
     id="defs4" />
  <sodipodi:namedview
     id="base"
     pagecolor="#ffffff"
     bordercolor="#666666"
     borderopacity="1.0"
     inkscape:pageopacity="0.0"
     inkscape:pageshadow="2"
     inkscape:zoom="21.15"
     inkscape:cx="20"
     inkscape:cy="23.789127"
     inkscape:document-units="px"
     inkscape:current-layer="layer1"
     showgrid="false"
     inkscape:window-width="1918"
     inkscape:window-height="1030"
     inkscape:window-x="0"
     inkscape:window-y="0"
     inkscape:window-maximized="1" />
  <metadata
     id="metadata7">
    <rdf:RDF>
      <cc:Work
         rdf:about="">
        <dc:format>image/svg+xml</dc:format>
        <dc:type
           rdf:resource="http://purl.org/dc/dcmitype/StillImage" />
        <dc:title></dc:title>
      </cc:Work>
    </rdf:RDF>
  </metadata>
  <g
     inkscape:label="Layer 1"
     inkscape:groupmode="layer"
     id="layer1"
     transform="translate(0,-1012.3622)">
    <path
       style="stroke-width:0"
       d="M 37.34375 2.5625 L 28.34375 22.5625 L 31.34375 22.5625 L 27.34375 37.5625 L 36.34375 17.5625 L 33.34375 17.5625 L 37.34375 2.5625 z M 4.34375 5.0625 L 4.34375 10.0625 L 9.34375 10.0625 L 9.34375 5.0625 L 4.34375 5.0625 z M 12.34375 5.0625 L 12.34375 10.0625 L 32.90625 10.0625 L 34.34375 6.8125 L 34.34375 5.0625 L 12.34375 5.0625 z M 4.34375 13.0625 L 4.34375 18.0625 L 9.34375 18.0625 L 9.34375 13.0625 L 4.34375 13.0625 z M 12.34375 13.0625 L 12.34375 18.0625 L 29.28125 18.0625 L 31.53125 13.0625 L 12.34375 13.0625 z M 4.34375 21.0625 L 4.34375 26.0625 L 9.34375 26.0625 L 9.34375 21.0625 L 4.34375 21.0625 z M 12.34375 21.0625 L 12.34375 26.0625 L 29.375 26.0625 L 30.03125 23.5625 L 26.8125 23.5625 L 27.9375 21.0625 L 12.34375 21.0625 z M 4.34375 29.0625 L 4.34375 34.0625 L 9.34375 34.0625 L 9.34375 29.0625 L 4.34375 29.0625 z M 12.34375 29.0625 L 12.34375 34.0625 L 27.25 34.0625 L 28.5625 29.0625 L 12.34375 29.0625 z "
       transform="translate(0,1012.3622)"
       id="rect3843" />
  </g>
</svg>
