<?xml version="1.0" encoding="UTF-8" standalone="no"?>
<!-- Created with Inkscape (http://www.inkscape.org/) -->

<svg
   xmlns:dc="http://purl.org/dc/elements/1.1/"
   xmlns:cc="http://creativecommons.org/ns#"
   xmlns:rdf="http://www.w3.org/1999/02/22-rdf-syntax-ns#"
   xmlns:svg="http://www.w3.org/2000/svg"
   xmlns="http://www.w3.org/2000/svg"
   xmlns:sodipodi="http://sodipodi.sourceforge.net/DTD/sodipodi-0.dtd"
   xmlns:inkscape="http://www.inkscape.org/namespaces/inkscape"
   id="svg3752"
   version="1.1"
   inkscape:version="0.48.4 r9939"
   sodipodi:docname="incidents.svg"
   viewBox="0 0 40 40">
  <defs
     id="defs3754" />
  <sodipodi:namedview
     id="base"
     pagecolor="#ffffff"
     bordercolor="#666666"
     borderopacity="1.0"
     inkscape:pageopacity="0.0"
     inkscape:pageshadow="2"
     inkscape:zoom="2.64375"
     inkscape:cx="182.25969"
     inkscape:cy="57.62183"
     inkscape:document-units="px"
     inkscape:current-layer="layer1"
     showgrid="true"
     inkscape:snap-center="true"
     inkscape:window-width="1918"
     inkscape:window-height="1030"
     inkscape:window-x="0"
     inkscape:window-y="0"
     inkscape:window-maximized="1">
    <inkscape:grid
       type="xygrid"
       id="grid3785"
       empspacing="5"
       visible="true"
       enabled="true"
       snapvisiblegridlinesonly="true" />
  </sodipodi:namedview>
  <metadata
     id="metadata3757">
    <rdf:RDF>
      <cc:Work
         rdf:about="">
        <dc:format>image/svg+xml</dc:format>
        <dc:type
           rdf:resource="http://purl.org/dc/dcmitype/StillImage" />
      </cc:Work>
    </rdf:RDF>
  </metadata>
  <g
     inkscape:label="Layer 1"
     inkscape:groupmode="layer"
     id="layer1">
    <path
       style="stroke-width:0"
       d="M 22.15625 1.15625 C 20.578897 1.0379708 19.452492 2.1031424 18.84375 4.375 C 18.597354 5.2945614 18.366931 6.3434916 18.15625 7.5625 L 14.15625 28.625 L 16.75 29.3125 L 23.8125 9.0625 C 24.326512 7.576916 24.653067 6.5637603 24.8125 5.96875 C 25.493712 3.4264332 24.822297 1.8030266 22.875 1.28125 C 22.631587 1.2160276 22.381586 1.173147 22.15625 1.15625 z M 8.84375 3.625 C 8.6626194 3.6395 8.491872 3.68275 8.3125 3.71875 L 10.1875 5.5625 L 9.4375 9.21875 L 9.4375 9.25 L 9.40625 9.25 L 6.125 10.40625 L 3.875 8.15625 C 3.803585 8.51515 3.75 8.90135 3.75 9.28125 C 3.75 12.40465 6.2828609 14.9375 9.40625 14.9375 C 10.245661 14.9375 11.033595 14.7656 11.75 14.4375 L 15.21875 17.90625 L 16.125 13.15625 L 14.53125 11.59375 C 14.852268 10.88385 15.03125 10.11095 15.03125 9.28125 C 15.03125 6.15785 12.529639 3.625 9.40625 3.625 C 9.2163945 3.625 9.0248806 3.6105 8.84375 3.625 z M 21.40625 18.4375 L 19.84375 22.53125 L 25.4375 28.15625 C 25.123573 28.85965 24.9375 29.6176 24.9375 30.4375 C 24.9375 33.5609 27.501611 36.09375 30.625 36.09375 C 30.99432 36.09375 31.337925 36.03675 31.6875 35.96875 L 29.8125 34.125 L 30.5625 30.46875 L 33.875 29.3125 L 36.125 31.5625 C 36.19642 31.2036 36.25 30.8173 36.25 30.4375 C 36.25 27.3141 33.748389 24.78125 30.625 24.78125 C 29.780709 24.78125 28.969629 24.9807 28.25 25.3125 L 21.40625 18.4375 z M 13.875 32.4375 C 12.406755 32.346871 10.999578 33.297928 10.59375 34.8125 C 10.129946 36.543439 11.166903 38.26944 12.84375 38.71875 C 14.574679 39.182551 16.30069 38.145597 16.75 36.46875 C 17.213804 34.737811 16.230929 33.026301 14.5 32.5625 C 14.290394 32.506336 14.084749 32.450447 13.875 32.4375 z "
       id="path3158" />
     </g>
</svg>
